<svg width="615.095" xmlns="http://www.w3.org/2000/svg" height="192.935" fill="none"><g mask="url(#b)" clip-path="url(#a)"><defs><clipPath id="a" class="mask-clip-path"><polyline points="0,0 615.0953003443601,0 615.0953003443601,192.93518245417448 0,192.93518245417448"/></clipPath><filter id="c"><feFlood flood-color="#fff" result="FloodResult"/><feComposite in="FloodResult" in2="SourceGraphic" operator="in" result="comp"/></filter><mask width="615.095" maskUnits="userSpaceOnUse" height="192.935" class="mask-shape" x="0" id="b" data-old-y="0" data-old-width="615.095" data-old-x="0" y="0" data-old-height="192.935"><g filter="url(#c)"><g class="fills"><path d="M430.895 14.815s-11.53 4.59-24.94 19.37c-13.41 14.78-21.22 31.4-15.44 35.82 2.22 1.68 7.34 2 16.63-6.4a73.388 73.388 0 0 0 19.66-27.26c6-14.63 4.09-21.35 4.09-21.53Zm73.39 26.59c-14.9-7.64-25.79-17-37.12-22.79-10.81-5.55-17.8-7.87-26.54-6.7a27.184 27.184 0 0 0-3.6.9s4.5 15.37-13.41 41.19c-18.14 26.18-34.6 26-39.28 18.81-4.9-7.59 1.43-23.06 12-36.83 11.07-14.4 30.51-26.34 30.51-26.34s-6.2-3.79-21.42 4.84c-14.85 8.38-40.41 28.38-64.13 62.11-23.72 33.73-28.42 52.29-31.82 66.9-3.4 14.61-.31 30.26 15.89 30.26s35.06-24.71 40.38-33.3c9.89-16 16.34-40.54 2.88-37.17-6.63 1.66-12 9-15.39 16.07a68.808 68.808 0 0 0-4.88 14.2 56.047 56.047 0 0 0-13.13 7.64 97.171 97.171 0 0 0-12.46 11s.06-11.68 9.37-30.58c9.31-18.9 26.4-27.53 36.08-28.34 8.72-.7 20.07 6.7 10.45 34-9.62 27.3-38 60.49-67.81 60.9-27.51.38-45.51-34.73-7.22-96 42.38-67.69 92.09-88.46 108.23-90.77 16.14-2.31 21.39 4.81 21.39 4.81a69.43 69.43 0 0 1 30.69-5.06c19.71 1.33 34.95 15.28 55.07 25.08-5.23 5-10.22 10.25-14.73 15.17Zm88.55-22.79c-13.66 8.76-32.56 16.7-50.72 15-4.6 4.75-9.52 10.25-14.45 16.25 31.49 6.23 59.08-13.28 73.75-29.89a97.893 97.893 0 0 0 13.68-19.67 123.034 123.034 0 0 1-22.26 18.31Zm-41.94 88.72c.239-.415.433-.854.58-1.31a3.178 3.178 0 0 0-2.89-2.76c-3-.14-7.09.43-17.82 12.31a161.582 161.582 0 0 0-22.81 32.36c-6.14 11.22-8.63 19.58-5.1 21.74a5.09 5.09 0 0 0 3.72.38c2.39-.57 5.1-2.81 9.22-7.58 1.93-2.24 4.07-5.41 6.63-8.92 7.1-9.66 24.94-40.07 28.47-46.22Zm-111.46 12.92c1.79-4.68 4.07-13.87-.67-17.48-5.09-3.83-18.07 5.16-18.14 14.38-.09 9.44 9.14 13.71 11.35 14.31 1.26.34 1.7.29 2.31-.72a84.013 84.013 0 0 0 5.15-10.49Zm-9.82 17.17a39.235 39.235 0 0 1-8.92-5.69 28.6 28.6 0 0 1-6.68-8.13c-.18-.3-.36-.07-.56.2-.2.27-1 1-7.92 11.14s-17.55 31.15-7.93 34.73c6.16 2.29 16.41-8.5 22-15.65a133.386 133.386 0 0 0 10.33-15.72c.29-.61 0-.75-.32-.88Zm109.13 24.27c-2.61 4.18-5.59 12.2 3 7.21 10.51-6.07 25.48-28.78 25.48-28.78h6.79a227.5 227.5 0 0 1-20.58 27c-10.65 11.8-23.64 22.52-32.79 21.46-10.69-1.25-7.34-15.28-7.34-15.28s-15.29 16.28-25.87 15.11c-14.29-1.58-9.93-19.24-9.93-19.24s-16.16 19.83-27.17 19.22c-17.26-1-12.92-22-8.12-36.79 2.57-7.91 4.95-14.12 4.95-14.12s-1.71.45-5.39 1c-1.92.27-5.42.47-5.42.47s-7.19 12.68-12.94 20.3c-5.75 7.62-30.19 33.89-44.57 28.63-13.3-4.86-8.9-25.22-1.16-41.4 11.3-23.59 43.08-57.48 61.41-53 19 4.61.43 39.28.43 39.28s0 .13.2.22c.38.14 1.37.25 3.66-.2a41.15 41.15 0 0 0 6.95-2.07s19.1-40 40.2-66.17 63.19-71.24 79.71-60.34c4 2.68 2.2 11.91-3.24 23.11a73.897 73.897 0 0 1-7.46 2c3.64-6.61 6.05-12.18 6.77-16.07 2.49-13.52-29.08 15-51.64 45.64a425.373 425.373 0 0 0-36.1 58.43 98.804 98.804 0 0 0 11.64-8.31 333.149 333.149 0 0 0 28.64-26.74 311.85 311.85 0 0 0 24.38-28.14 66.027 66.027 0 0 0 7.17-.74 308.834 308.834 0 0 1-26.9 31.78c-9 9.1-18.74 18.89-27.2 26a226.437 226.437 0 0 1-23.86 17.73s-19.73 39.79-9 42.34c6.31 1.52 18.77-17.67 18.77-17.67s16.26-24.81 26.06-36c13.37-15.2 24.88-24 36.38-24.16 6.7-.12 10.65 7 10.65 7l3.15-4.88h19.4s-36.23 61.48-39.11 66.17Zm54.08-143.08c-13.66 8.76-32.56 16.7-50.72 15-4.6 4.75-9.52 10.25-14.45 16.25 31.49 6.23 59.08-13.28 73.75-29.89a97.842 97.842 0 0 0 13.69-19.67 122.757 122.757 0 0 1-22.27 18.31Zm-272.45 30.16h-18.45l-10.43 16.85h18.45Zm-87.36 58.35c7.85-10.76 29.51-48.47 29.51-48.47a3.17 3.17 0 0 0-2.88-2.76c-3-.14-8 .87-17.93 13.3-9.93 12.43-17.64 22.32-23.26 32.61-6.16 11.23-8.85 19.15-5.31 21.3a5.256 5.256 0 0 0 3.71.38c2.3-.58 5.31-2.89 9.44-7.64 1.94-2.22 4.14-5.21 6.72-8.72Zm-99-51c-5.1-3.85-18.07 5.16-18.14 14.36-.08 9.45 11.67 12.34 13.19 12.41.447.037.896-.056 1.29-.27.271-.158.488-.395.62-.68a89.15 89.15 0 0 0 3.72-8.34c1.79-4.68 4.06-13.87-.68-17.48Zm-7.69 32.53a42.972 42.972 0 0 1-10-4.6 20.813 20.813 0 0 1-7.14-7.91c-.18-.3-.38-.07-.56.2-.18.27-1.22 1.57-8.16 11.75s-17.22 31-7.59 34.58c6.14 2.33 16.51-8.55 22.14-15.67a185.453 185.453 0 0 0 11.66-17.46c.23-.61 0-.75-.35-.89Zm150.69 6.27h6.76s-33.87 49-53 46.72c-10.68-1.25-7.51-14.43-7.51-14.43s-15 17.56-28.78 14c-12.5-3.21-4.43-24-4.43-24-1.42.57-28.47 31.06-47.48 23.75-19.89-7.68-9.56-33.21-5.78-40.89 3.21-6.47 6.76-12.77 6.76-12.77s-3.05.86-5 1.3c-1.95.44-4.77 1-4.77 1s-9.41 15.29-15.16 22.92c-5.75 7.63-30.19 33.85-44.59 28.63-14.4-5.22-10.83-25.37-2.74-41.37 13.12-25.95 44.25-57.84 63-53 18.94 4.83 3.26 35.55 3.26 35.55s3.77.49 12.8-5.67c13-8.87 30.16-32.73 48.74-29.93 8.76 1.32 16.92 10.27 5.76 27.27-3.56 5.46-9.53 10.34-14.1 5.51-2.85-3-.36-8.47 2.63-12.21a11.7 11.7 0 0 1 10-4.58s3.07-7-4.74-6.9c-6.32.12-22.32 14.85-31.35 29.73-8.28 13.66-20.83 36.93-8.23 42 11.55 4.66 33.53-21.43 43.71-35.1 10.18-13.67 33.38-44.65 52.84-45.89 6.7-.44 10.69 5.67 10.69 5.67l2.25-3.56h19.46s-36.65 61.16-39.51 65.79c-2.25 3.62-5.24 11.76 3 7.2s25.51-26.74 25.51-26.74Zm-10.59 98a80.596 80.596 0 0 0-48.9-14.27 30.003 30.003 0 0 0-23.86 12.93c-7.42-12.95-22.09-20.9-44.77-20.72-36.65.42-73 17.32-101.8 17.3-27.6 0-47.73-17.35-47.08-48.16 1.21-54.07 46.9-102.76 81-124.67 19.66-12.59 36.1-16.33 46.85-15.12 7.84.87 17.27 9.93 11.32 23.28-8.74 19.51-20.81 17.91-20.36 8.58.25-6.07 4.29-9.89 7.33-12 1.93-1.33 5.34-1.71 7.12-1.75 1.73-1.46 3-12.14-11-8.63s-31 17.31-47.14 35.14c-16.14 17.83-41.27 51.53-47.48 86.92-2.9 16.41-1 46.34 37.91 46 33-.27 81.64-22 126.34-21.55 17.35.17 32.45 4.85 44.22 12.11 11.56 7.12 25.42 17.52 30.3 24.61Z" class="cls-1" style="fill: rgb(177, 178, 181); fill-opacity: 1;"/></g></g></mask></defs><defs><linearGradient id="d" x1=".004" y1=".439" x2=".767" y2=".466"><stop offset="0" stop-color="#00103f"/><stop offset="1" stop-color="#603ec0"/></linearGradient><pattern patternUnits="userSpaceOnUse" x=".015" y=".005" width="615" height="193" id="e"><rect width="615" height="193" style="fill: url(&quot;#d&quot;);"/></pattern></defs><rect rx="0" ry="0" x=".015" y=".005" width="615" height="193" fill="url(#e)" class="fills"/></g></svg>